<?xml version="1.0" encoding="utf-8"?>
<!-- Generator: Adobe Illustrator 24.3.0, SVG Export Plug-In . SVG Version: 6.00 Build 0)  -->
<svg version="1.1" id="Calque_1" xmlns="http://www.w3.org/2000/svg" xmlns:xlink="http://www.w3.org/1999/xlink" x="0px" y="0px"
	 viewBox="0 0 174 26" style="enable-background:new 0 0 174 26;" xml:space="preserve">
<style type="text/css">
	.st0{fill:#11142D;}
	.st1{fill:#615DFF;}
	.st2{fill:#3DD9EB;}
	.st3{font-family:'Montserrat-Black';}
	.st4{font-size:19px;}
</style>
<path class="st0" d="M46.7-18.1V-36h3.1l6.7,9.1H55l6.6-9.1h3.1v17.9h-3.3v-14.2l1.3,0.3l-6.8,9h-0.4l-6.6-9l1.1-0.3v14.2H46.7z
	 M74.2-17.8c-1.3,0-2.4-0.3-3.5-0.9c-1-0.6-1.9-1.4-2.5-2.4c-0.6-1-0.9-2.2-0.9-3.5s0.3-2.5,0.9-3.5c0.6-1,1.5-1.8,2.5-2.4
	c1-0.6,2.2-0.9,3.5-0.9c1.3,0,2.4,0.3,3.5,0.9c1,0.6,1.9,1.4,2.5,2.4c0.6,1,0.9,2.2,0.9,3.5c0,1.3-0.3,2.5-0.9,3.5s-1.5,1.8-2.5,2.4
	C76.6-18.1,75.5-17.8,74.2-17.8z M74.2-20.7c0.7,0,1.3-0.2,1.8-0.5c0.5-0.3,1-0.8,1.3-1.4c0.3-0.6,0.5-1.3,0.5-2
	c0-0.8-0.2-1.4-0.5-2c-0.3-0.6-0.7-1.1-1.3-1.4c-0.5-0.4-1.1-0.5-1.8-0.5c-0.7,0-1.4,0.2-1.9,0.5c-0.5,0.3-1,0.8-1.3,1.4
	c-0.3,0.6-0.5,1.2-0.5,2c0,0.8,0.2,1.4,0.5,2c0.3,0.6,0.8,1.1,1.3,1.4C72.9-20.9,73.5-20.7,74.2-20.7z M89.6-17.8
	c-1.3,0-2.4-0.3-3.4-0.9c-1-0.6-1.8-1.4-2.4-2.5c-0.6-1-0.9-2.2-0.9-3.5c0-1.3,0.3-2.4,0.9-3.5c0.6-1,1.4-1.8,2.4-2.4
	c1-0.6,2.1-0.9,3.4-0.9c1,0,1.9,0.2,2.6,0.6c0.8,0.4,1.4,0.9,1.8,1.6l-0.5,0.6v-7.7h3.1v18.2h-3v-2.5L94-20
	c-0.4,0.7-1.1,1.2-1.9,1.6C91.4-18,90.5-17.8,89.6-17.8z M89.9-20.7c0.7,0,1.4-0.2,1.9-0.5c0.5-0.3,1-0.8,1.3-1.4
	c0.3-0.6,0.5-1.3,0.5-2c0-0.8-0.2-1.4-0.5-2c-0.3-0.6-0.7-1.1-1.3-1.4c-0.5-0.3-1.2-0.5-1.9-0.5c-0.7,0-1.3,0.2-1.9,0.5
	c-0.6,0.3-1,0.8-1.3,1.4c-0.3,0.6-0.5,1.2-0.5,2s0.2,1.4,0.5,2c0.3,0.6,0.8,1.1,1.3,1.4C88.6-20.9,89.2-20.7,89.9-20.7z M105.8-17.8
	c-1.3,0-2.5-0.3-3.5-0.9c-1-0.6-1.8-1.4-2.4-2.5c-0.6-1-0.8-2.2-0.8-3.5c0-1.3,0.3-2.5,0.8-3.5c0.6-1,1.4-1.8,2.3-2.4
	c1-0.6,2.1-0.9,3.3-0.9c1,0,1.9,0.2,2.7,0.5c0.8,0.3,1.4,0.8,2,1.4c0.5,0.6,1,1.3,1.2,2c0.3,0.8,0.4,1.6,0.4,2.4c0,0.2,0,0.5,0,0.7
	c0,0.2-0.1,0.4-0.1,0.6h-10.1v-2.4h8.3l-1.5,1.1c0.1-0.7,0.1-1.4-0.1-2c-0.2-0.6-0.6-1-1.1-1.4c-0.5-0.3-1.1-0.5-1.8-0.5
	c-0.7,0-1.2,0.2-1.8,0.5c-0.5,0.3-0.9,0.8-1.2,1.4c-0.3,0.6-0.4,1.4-0.3,2.3c-0.1,0.8,0,1.5,0.3,2.1c0.3,0.6,0.7,1.1,1.2,1.4
	c0.6,0.3,1.2,0.5,1.9,0.5s1.3-0.2,1.8-0.5c0.5-0.3,0.9-0.7,1.2-1.2l2.5,1.2c-0.3,0.6-0.7,1.2-1.2,1.7c-0.5,0.5-1.2,0.9-1.9,1.1
	C107.5-18,106.7-17.8,105.8-17.8z M114.3-18.1v-13.1h3v2.9l-0.2-0.4c0.3-1,0.8-1.7,1.4-2c0.7-0.4,1.4-0.6,2.4-0.6h0.8v2.8h-1.1
	c-0.9,0-1.6,0.3-2.2,0.8c-0.5,0.5-0.8,1.3-0.8,2.3v7.3H114.3z M123.3-18.1v-13.1h3v2.6l-0.2-0.5c0.3-0.8,0.8-1.4,1.5-1.8
	c0.7-0.4,1.5-0.6,2.4-0.6c1,0,1.8,0.2,2.5,0.6c0.8,0.4,1.3,1,1.8,1.8c0.4,0.7,0.6,1.6,0.6,2.6v8.4h-3.1v-7.7c0-0.6-0.1-1.1-0.3-1.5
	s-0.5-0.7-0.9-1c-0.4-0.2-0.8-0.4-1.4-0.4c-0.5,0-1,0.1-1.4,0.4c-0.4,0.2-0.7,0.5-0.9,1c-0.2,0.4-0.3,0.9-0.3,1.5v7.7H123.3z
	 M137.5-18.1v-13.1h3.1v13.1H137.5z M137.5-32.6V-36h3.1v3.4H137.5z M142.4-18.1v-2.5l7.6-8.8l0.5,1.1h-7.7v-2.8h10.5v2.6l-7.4,8.8
	l-0.5-1.1h8v2.8H142.4z M161.3-17.8c-1.3,0-2.5-0.3-3.5-0.9c-1-0.6-1.8-1.4-2.4-2.5c-0.6-1-0.8-2.2-0.8-3.5c0-1.3,0.3-2.5,0.8-3.5
	c0.6-1,1.4-1.8,2.3-2.4c1-0.6,2.1-0.9,3.3-0.9c1,0,1.9,0.2,2.7,0.5c0.8,0.3,1.4,0.8,2,1.4c0.5,0.6,1,1.3,1.2,2
	c0.3,0.8,0.4,1.6,0.4,2.4c0,0.2,0,0.5,0,0.7c0,0.2-0.1,0.4-0.1,0.6h-10.1v-2.4h8.3L164-25c0.1-0.7,0.1-1.4-0.1-2
	c-0.2-0.6-0.6-1-1.1-1.4c-0.5-0.3-1.1-0.5-1.8-0.5c-0.7,0-1.2,0.2-1.8,0.5c-0.5,0.3-0.9,0.8-1.2,1.4c-0.3,0.6-0.4,1.4-0.3,2.3
	c-0.1,0.8,0,1.5,0.3,2.1c0.3,0.6,0.7,1.1,1.2,1.4c0.6,0.3,1.2,0.5,1.9,0.5c0.7,0,1.3-0.2,1.8-0.5c0.5-0.3,0.9-0.7,1.2-1.2l2.5,1.2
	c-0.3,0.6-0.7,1.2-1.2,1.7c-0.5,0.5-1.2,0.9-1.9,1.1C163-18,162.2-17.8,161.3-17.8z"/>
<path class="st1" d="M20.8-15.1c2.8,0,5-2.3,4.5-5c-0.3-1.7-0.8-3.4-1.4-5c-1.3-3.2-3.1-6-5.4-8.4c-2.3-2.4-5.1-4.3-8.2-5.6
	c-1.5-0.6-3.1-1.1-4.7-1.5c-2.7-0.6-5,1.7-5,4.5v16c0,2.8,2.2,5,5,5H20.8z"/>
<g>
	<path class="st2" d="M14.3-15.1c-2.8,0-5-2.3-4.5-5c0.3-1.7,0.8-3.4,1.4-5c1.3-3.2,3.1-6,5.4-8.4c2.3-2.4,5.1-4.3,8.2-5.6
		c1.5-0.6,3.1-1.1,4.7-1.5c2.7-0.6,5,1.7,5,4.5v16c0,2.8-2.2,5-5,5H14.3z"/>
</g>
<text transform="matrix(1 0 0 1 43.9038 21.9027)"><tspan x="0" y="0" class="st3 st4">AVAX</tspan><tspan x="60" y="0" class="st1 st3 st4">RESTO</tspan></text>
<g>
	<g>
		<polygon class="st2" points="13.3,24 18,24.9 13.3,24.9 13.3,25.2 30,25.2 30,23.2 13.3,23.2 		"/>
		<path class="st2" d="M29.3,6C29.3,6,29.2,5.9,29.3,6c-3,0.4-4.4,3-4.4,5.4c-0.8-3.6,1.3-5.5,3.9-6.4c-1.6-2.2-4.1-3.7-7.1-3.7
			c-3,0-5.7,1.6-7.2,4c1.8,0.8,2.3,2.6,2.3,2.6c-0.8-1.2-1.9-1.8-3.2-1.9c-3.1,0.4-5.4,3.1-5.4,6.3c0,3.1,2.2,5.7,5.1,6.2v0.1
			c1.7,0.1,3.2-0.8,4.5-2.2c0,0-0.8,2.7-4.5,3.1v2.3h14.5l0.4-1.9v1.9h0.4l0.6-3.3v3.3H30v-3.3c2.9-0.6,5.1-3.1,5.1-6.2
			C35.1,8.9,32.5,6.2,29.3,6z M26.5,17.2c4.6-0.1,7-3,7-3C31.2,18.6,26.5,17.2,26.5,17.2z"/>
	</g>
</g>
</svg>
