<svg id="Calque_1" data-name="Calque 1" xmlns="http://www.w3.org/2000/svg" viewBox="0 0 174 26"><defs><style>.cls-1{font-size:19px;font-family:Montserrat-Black, Montserrat;font-weight:800;}.cls-2{letter-spacing:-0.04em;}.cls-3{letter-spacing:-0.02em;}.cls-4,.cls-5{fill:#615dff;}.cls-5{letter-spacing:-0.01em;}.cls-6{fill:#3dd9eb;}</style></defs><text class="cls-1" transform="translate(43.9 19.9)"><tspan class="cls-2">AVA</tspan><tspan class="cls-3" x="43.28" y="0">X</tspan><tspan class="cls-4" x="57.38" y="0">RE</tspan><tspan class="cls-5" x="84.32" y="0">ST</tspan><tspan class="cls-4" x="108.85" y="0">O</tspan></text><polygon class="cls-6" points="13.26 24.03 18.01 24.92 13.26 24.92 13.26 25.21 29.98 25.21 29.98 23.25 13.26 23.25 13.26 24.03"/><path class="cls-6" d="M29.26,6l0,0a5.31,5.31,0,0,0-4.4,5.48C24.07,7.77,26.17,6,28.69,5a8.61,8.61,0,0,0-14.31.25,4.4,4.4,0,0,1,2.32,2.6A4,4,0,0,0,13.55,6a6.32,6.32,0,0,0-.29,12.46v.07a5.57,5.57,0,0,0,4.46-2.23,4.91,4.91,0,0,1-4.46,3.11v2.34H27.78l.36-1.93v1.93h.39l.61-3.27v3.27H30V18.47A6.32,6.32,0,0,0,29.26,6ZM26.49,17.18a9.83,9.83,0,0,0,7-3C31.24,18.63,26.49,17.18,26.49,17.18Z"/></svg>